<svg xmlns="http://www.w3.org/2000/svg" xmlns:xlink="http://www.w3.org/1999/xlink" version="1.1" id="Layer_1" x="0px" y="0px" enable-background="new 0 0 207 165" xml:space="preserve" viewBox="34.64 26.12 136.76 103.72">
<path fill="#35B3AE" opacity="1.000000" stroke="none" d=" M110.551743,96.770195  C95.843018,102.517784 84.811394,97.779533 77.351280,85.534248  C70.264191,73.901237 70.654388,55.142857 81.220413,47.612579  C86.773727,43.654808 93.699211,41.421089 100.253105,39.113224  C111.602264,35.116783 123.310326,32.108273 134.558563,27.865402  C145.702393,23.661913 154.423691,27.452883 162.186218,34.805241  C171.010727,43.163437 172.674942,54.258438 170.578613,65.357918  C168.554764,76.073547 160.241577,81.863884 150.112686,84.941154  C146.717560,85.972641 143.284164,86.878128 139.564774,87.926773  C139.062683,86.486389 138.251877,85.038025 138.091644,83.520935  C137.740784,80.198669 137.414307,77.588623 142.442261,76.484306  C148.542374,75.144501 155.366730,73.864716 159.054642,67.433212  C164.445541,58.031841 159.215744,37.256405 145.332718,36.985062  C139.611481,36.873249 133.738998,39.226547 128.105301,40.998951  C116.179344,44.750954 104.437683,49.098877 92.470779,52.705875  C87.403397,54.233261 84.527657,57.199802 83.534454,62.030487  C81.622559,71.329475 83.464737,81.970314 92.330223,87.719322  C98.360962,91.630074 104.244141,89.002785 110.154480,87.387222  C111.858131,86.921532 113.546036,86.398277 115.473770,85.833229  C116.820999,90.888893 115.504234,94.430832 110.551743,96.770195 z"/>
<path fill="#35B3AE" opacity="1.000000" stroke="none" d=" M44.999886,95.374374  C44.478416,103.362556 45.995762,110.041313 51.892666,115.494209  C56.650463,119.893753 61.520554,120.855270 67.630562,118.785217  C79.922638,114.620712 92.381119,110.950195 104.719864,106.919502  C112.172684,104.484886 119.689087,102.103348 122.338158,93.242073  C125.358902,83.137527 120.954178,71.259369 111.517410,68.168282  C107.122772,66.728783 101.698586,68.264046 96.764786,68.712036  C94.402733,68.926506 92.095879,69.748947 89.722389,70.305801  C88.693794,63.743382 91.624588,60.107761 98.166435,57.979198  C117.679848,51.629997 132.301376,69.354797 133.031738,84.108772  C133.497818,93.524277 132.135574,102.410866 124.533241,108.714180  C121.153839,111.516136 116.695381,113.327301 112.440994,114.707489  C97.142860,119.670418 81.713951,124.228943 66.352821,128.999451  C58.858654,131.326828 52.475658,128.504715 46.841320,124.219635  C34.363689,114.730019 30.297928,93.448021 40.113560,80.937347  C42.058495,78.458405 44.810955,76.252151 47.658443,74.917099  C53.638748,72.113220 59.929474,69.971443 66.659462,67.335938  C66.659462,71.554108 66.659462,74.949829 66.659462,78.333580  C61.776546,80.085411 56.687290,81.642082 51.827145,83.731636  C47.089745,85.768417 45.954971,90.382881 44.999886,95.374374 z"/>
</svg>