<svg xmlns="http://www.w3.org/2000/svg" version="1.1" xmlns:xlink="http://www.w3.org/1999/xlink" width="512" height="512" x="0" y="0" viewBox="0 0 24 24" style="enable-background:new 0 0 512 512" xml:space="preserve"><g><g fill="#000" fill-rule="evenodd" clip-rule="evenodd"><path d="M6 7.75A.75.75 0 0 1 6.75 7h10.5a.75.75 0 0 1 0 1.5H6.75A.75.75 0 0 1 6 7.75zM6 12a.75.75 0 0 1 .75-.75h6.5a.75.75 0 0 1 0 1.5h-6.5A.75.75 0 0 1 6 12zM6 16.25a.75.75 0 0 1 .75-.75h10.5a.75.75 0 0 1 0 1.5H6.75a.75.75 0 0 1-.75-.75z" fill="#000000" opacity="1" data-original="#000000"></path></g></g></svg>