<svg xmlns="http://www.w3.org/2000/svg" version="1.1" xmlns:xlink="http://www.w3.org/1999/xlink" width="64" height="64" x="0" y="0" viewBox="0 0 24 24" style="enable-background:new 0 0 512 512" xml:space="preserve"><g><path d="M20 3.5H4A2.503 2.503 0 0 0 1.5 6v12A2.503 2.503 0 0 0 4 20.5h16a2.503 2.503 0 0 0 2.5-2.5V6A2.503 2.503 0 0 0 20 3.5zM21.5 18a1.502 1.502 0 0 1-1.5 1.5H4A1.502 1.502 0 0 1 2.5 18V6A1.502 1.502 0 0 1 4 4.5h16A1.502 1.502 0 0 1 21.5 6zm-11.146-6.354a.5.5 0 0 1 0 .707l-4 4a.5.5 0 0 1-.707-.707L9.293 12 5.646 8.354a.5.5 0 0 1 .707-.707zM18.5 16a.5.5 0 0 1-.5.5h-6a.5.5 0 0 1 0-1h6a.5.5 0 0 1 .5.5z" fill="#000000" opacity="1" data-original="#000000"></path></g></svg>